<mxfile host="Electron" agent="Mozilla/5.0 (Windows NT 10.0; Win64; x64) AppleWebKit/537.36 (KHTML, like Gecko) draw.io/24.7.17 Chrome/128.0.6613.36 Electron/32.0.1 Safari/537.36" version="24.7.17">
  <diagram name="PÃ¡gina-1" id="n4CHHjMTnL-i9XU4nj9X">
    <mxGraphModel dx="1185" dy="688" grid="1" gridSize="10" guides="1" tooltips="1" connect="1" arrows="1" fold="1" page="1" pageScale="1" pageWidth="827" pageHeight="1169" math="0" shadow="0">
      <root>
        <mxCell id="0" />
        <mxCell id="1" parent="0" />
        <mxCell id="ViVPK2Wu-kz5aLM2kTYd-1" value="EMPLEADO" style="whiteSpace=wrap;html=1;align=center;" parent="1" vertex="1">
          <mxGeometry x="40" y="40" width="100" height="40" as="geometry" />
        </mxCell>
        <mxCell id="ViVPK2Wu-kz5aLM2kTYd-2" value="Vender" style="shape=rhombus;perimeter=rhombusPerimeter;whiteSpace=wrap;html=1;align=center;" parent="1" vertex="1">
          <mxGeometry x="260" y="30" width="120" height="60" as="geometry" />
        </mxCell>
        <mxCell id="ViVPK2Wu-kz5aLM2kTYd-3" value="COCHE" style="whiteSpace=wrap;html=1;align=center;" parent="1" vertex="1">
          <mxGeometry x="500" y="40" width="80" height="40" as="geometry" />
        </mxCell>
        <mxCell id="ViVPK2Wu-kz5aLM2kTYd-4" value="CLIENTE" style="whiteSpace=wrap;html=1;align=center;" parent="1" vertex="1">
          <mxGeometry x="500" y="280" width="80" height="40" as="geometry" />
        </mxCell>
        <mxCell id="ViVPK2Wu-kz5aLM2kTYd-5" value="Comprar" style="shape=rhombus;perimeter=rhombusPerimeter;whiteSpace=wrap;html=1;align=center;" parent="1" vertex="1">
          <mxGeometry x="480" y="150" width="120" height="60" as="geometry" />
        </mxCell>
        <mxCell id="ViVPK2Wu-kz5aLM2kTYd-6" value="" style="endArrow=none;html=1;rounded=0;exitX=1;exitY=0.5;exitDx=0;exitDy=0;entryX=0;entryY=0.5;entryDx=0;entryDy=0;edgeStyle=orthogonalEdgeStyle;verticalAlign=bottom;" parent="1" source="ViVPK2Wu-kz5aLM2kTYd-1" target="ViVPK2Wu-kz5aLM2kTYd-2" edge="1">
          <mxGeometry relative="1" as="geometry">
            <mxPoint x="180" y="160" as="sourcePoint" />
            <mxPoint x="434" y="410" as="targetPoint" />
          </mxGeometry>
        </mxCell>
        <mxCell id="ViVPK2Wu-kz5aLM2kTYd-7" value="0 : M" style="endArrow=none;html=1;rounded=0;exitX=0;exitY=0.5;exitDx=0;exitDy=0;entryX=1;entryY=0.5;entryDx=0;entryDy=0;edgeStyle=orthogonalEdgeStyle;verticalAlign=bottom;" parent="1" source="ViVPK2Wu-kz5aLM2kTYd-3" target="ViVPK2Wu-kz5aLM2kTYd-2" edge="1">
          <mxGeometry relative="1" as="geometry">
            <mxPoint x="150" y="70" as="sourcePoint" />
            <mxPoint x="270" y="70" as="targetPoint" />
          </mxGeometry>
        </mxCell>
        <mxCell id="ViVPK2Wu-kz5aLM2kTYd-8" value="0 : M" style="endArrow=none;html=1;rounded=0;exitX=0.5;exitY=1;exitDx=0;exitDy=0;entryX=0.5;entryY=0;entryDx=0;entryDy=0;edgeStyle=orthogonalEdgeStyle;verticalAlign=bottom;" parent="1" source="ViVPK2Wu-kz5aLM2kTYd-3" target="ViVPK2Wu-kz5aLM2kTYd-5" edge="1">
          <mxGeometry relative="1" as="geometry">
            <mxPoint x="510" y="70" as="sourcePoint" />
            <mxPoint x="390" y="70" as="targetPoint" />
          </mxGeometry>
        </mxCell>
        <mxCell id="ViVPK2Wu-kz5aLM2kTYd-9" value="" style="endArrow=none;html=1;rounded=0;exitX=0.5;exitY=0;exitDx=0;exitDy=0;entryX=0.5;entryY=1;entryDx=0;entryDy=0;edgeStyle=orthogonalEdgeStyle;verticalAlign=bottom;" parent="1" source="ViVPK2Wu-kz5aLM2kTYd-4" target="ViVPK2Wu-kz5aLM2kTYd-5" edge="1">
          <mxGeometry relative="1" as="geometry">
            <mxPoint x="550" y="90" as="sourcePoint" />
            <mxPoint x="550" y="140" as="targetPoint" />
          </mxGeometry>
        </mxCell>
        <mxCell id="ViVPK2Wu-kz5aLM2kTYd-10" value="formaPago" style="ellipse;whiteSpace=wrap;html=1;align=center;" parent="1" vertex="1">
          <mxGeometry x="210" y="120" width="100" height="40" as="geometry" />
        </mxCell>
        <mxCell id="ViVPK2Wu-kz5aLM2kTYd-11" value="fechaVenta" style="ellipse;whiteSpace=wrap;html=1;align=center;" parent="1" vertex="1">
          <mxGeometry x="330" y="120" width="100" height="40" as="geometry" />
        </mxCell>
        <mxCell id="ViVPK2Wu-kz5aLM2kTYd-12" value="" style="endArrow=none;html=1;rounded=0;entryX=0;entryY=1;entryDx=0;entryDy=0;exitX=0.5;exitY=0;exitDx=0;exitDy=0;" parent="1" source="ViVPK2Wu-kz5aLM2kTYd-10" target="ViVPK2Wu-kz5aLM2kTYd-2" edge="1">
          <mxGeometry width="50" height="50" relative="1" as="geometry">
            <mxPoint x="290" y="310" as="sourcePoint" />
            <mxPoint x="340" y="260" as="targetPoint" />
          </mxGeometry>
        </mxCell>
        <mxCell id="ViVPK2Wu-kz5aLM2kTYd-13" value="" style="endArrow=none;html=1;rounded=0;entryX=1;entryY=1;entryDx=0;entryDy=0;exitX=0.5;exitY=0;exitDx=0;exitDy=0;" parent="1" source="ViVPK2Wu-kz5aLM2kTYd-11" target="ViVPK2Wu-kz5aLM2kTYd-2" edge="1">
          <mxGeometry width="50" height="50" relative="1" as="geometry">
            <mxPoint x="260" y="150" as="sourcePoint" />
            <mxPoint x="300" y="85" as="targetPoint" />
          </mxGeometry>
        </mxCell>
        <mxCell id="ViVPK2Wu-kz5aLM2kTYd-14" value="&lt;u&gt;codEmpleado&lt;/u&gt;" style="ellipse;whiteSpace=wrap;html=1;align=center;" parent="1" vertex="1">
          <mxGeometry x="40" y="120" width="100" height="40" as="geometry" />
        </mxCell>
        <mxCell id="ViVPK2Wu-kz5aLM2kTYd-15" value="&lt;u&gt;matricula&lt;/u&gt;" style="ellipse;whiteSpace=wrap;html=1;align=center;" parent="1" vertex="1">
          <mxGeometry x="620" y="40" width="100" height="40" as="geometry" />
        </mxCell>
        <mxCell id="ViVPK2Wu-kz5aLM2kTYd-17" value="" style="endArrow=none;html=1;rounded=0;exitX=0.5;exitY=1;exitDx=0;exitDy=0;entryX=0.5;entryY=0;entryDx=0;entryDy=0;edgeStyle=orthogonalEdgeStyle;verticalAlign=bottom;" parent="1" source="ViVPK2Wu-kz5aLM2kTYd-1" target="ViVPK2Wu-kz5aLM2kTYd-14" edge="1">
          <mxGeometry relative="1" as="geometry">
            <mxPoint x="270" y="130" as="sourcePoint" />
            <mxPoint x="524" y="380" as="targetPoint" />
          </mxGeometry>
        </mxCell>
        <mxCell id="ViVPK2Wu-kz5aLM2kTYd-18" value="" style="endArrow=none;html=1;rounded=0;exitX=0;exitY=0.5;exitDx=0;exitDy=0;edgeStyle=orthogonalEdgeStyle;verticalAlign=bottom;entryX=1;entryY=0.5;entryDx=0;entryDy=0;" parent="1" source="ViVPK2Wu-kz5aLM2kTYd-15" target="ViVPK2Wu-kz5aLM2kTYd-3" edge="1">
          <mxGeometry relative="1" as="geometry">
            <mxPoint x="100" y="90" as="sourcePoint" />
            <mxPoint x="600" y="20" as="targetPoint" />
          </mxGeometry>
        </mxCell>
        <mxCell id="ViVPK2Wu-kz5aLM2kTYd-19" value="&lt;u&gt;codCliente&lt;/u&gt;" style="ellipse;whiteSpace=wrap;html=1;align=center;" parent="1" vertex="1">
          <mxGeometry x="360" y="280" width="100" height="40" as="geometry" />
        </mxCell>
        <mxCell id="ViVPK2Wu-kz5aLM2kTYd-20" value="" style="endArrow=none;html=1;rounded=0;exitX=1;exitY=0.5;exitDx=0;exitDy=0;entryX=0;entryY=0.5;entryDx=0;entryDy=0;edgeStyle=orthogonalEdgeStyle;verticalAlign=bottom;" parent="1" source="ViVPK2Wu-kz5aLM2kTYd-19" target="ViVPK2Wu-kz5aLM2kTYd-4" edge="1">
          <mxGeometry relative="1" as="geometry">
            <mxPoint x="260" y="130" as="sourcePoint" />
            <mxPoint x="514" y="380" as="targetPoint" />
          </mxGeometry>
        </mxCell>
      </root>
    </mxGraphModel>
  </diagram>
</mxfile>
